<?xml version="1.0" standalone="no"?>
<!DOCTYPE svg PUBLIC "-//W3C//DTD SVG 20010904//EN"
 "http://www.w3.org/TR/2001/REC-SVG-20010904/DTD/svg10.dtd">
<svg version="1.0" xmlns="http://www.w3.org/2000/svg"
 width="64.000000pt" height="64.000000pt" viewBox="0 0 64.000000 64.000000"
 preserveAspectRatio="xMidYMid meet">

<g transform="translate(0.000000,64.000000) scale(0.100000,-0.100000)"
fill="#000000" stroke="none">
<path d="M90 617 c-30 -16 -51 -37 -67 -67 -22 -41 -23 -54 -23 -230 0 -176 1
-189 23 -230 16 -30 37 -51 67 -67 41 -22 54 -23 230 -23 176 0 189 1 230 23
30 16 51 37 67 67 22 41 23 54 23 230 0 176 -1 189 -23 230 -16 30 -37 51 -67
67 -41 22 -54 23 -230 23 -176 0 -189 -1 -230 -23z m206 -148 c13 -12 24 -33
24 -46 0 -34 -52 -33 -68 2 -15 32 -66 35 -82 6 -14 -27 -13 -134 2 -149 19
-19 66 -14 80 8 9 13 24 20 45 20 31 0 32 -1 21 -31 -30 -86 -172 -89 -212 -4
-24 50 -21 135 7 176 40 60 129 69 183 18z m124 -51 c0 -9 3 -9 12 0 18 18 63
15 89 -7 18 -14 23 -31 27 -79 4 -58 3 -63 -26 -92 -32 -32 -51 -36 -83 -20
-18 10 -19 7 -19 -40 0 -49 -1 -50 -30 -50 l-30 0 0 150 0 150 30 0 c17 0 30
-5 30 -12z"/>
<path d="M427 373 c-13 -12 -7 -90 7 -102 34 -28 67 29 47 82 -10 25 -39 36
-54 20z"/>
</g>
</svg>
